<svg xmlns="http://www.w3.org/2000/svg" width="1280" height="326" viewBox="0 0 1280 326" role="img" aria-labelledby="title desc"><title id="title">Paste ZPL. Render with Z2PL. Use PDF, SVG or PNG.</title><desc id="desc">A three-step workflow: existing label code, a browser or HTTP API conversion, and a portable output file.</desc><rect x="0" y="0" width="1280" height="326" rx="0" fill="#0d1117"/><rect x="0" y="16" width="344" height="290" rx="24" fill="#161b22"/><g aria-label="01" fill="#70b7ff" transform="translate(30.000 69.000) scale(0.0073242 -0.0073242)"><path transform="translate(0.0000 0)" d="M641 -24C986 -24 1200 274 1200 744C1200 1216 986 1514 641 1514C296 1514 81 1216 81 744C81 274 296 -24 641 -24ZM641 165C424 165 291 384 291 744C291 1106 424 1325 641 1325C857 1325 990 1106 990 744C990 384 857 165 641 165Z"/><path transform="translate(1281.0000 0)" d="M625 1490H416L45 1246V1034L409 1272H410V0H625Z"/></g><g aria-label="Paste ZPL." fill="#f5f5f7" transform="translate(30.000 118.000) scale(0.0146484 -0.0146484)"><path transform="translate(0.0000 0)" d="M124 0H388V536H688C1015 536 1225 721 1225 1014C1225 1306 1020 1490 693 1490H124ZM388 762V1264H678C856 1264 965 1169 965 1014C965 858 856 762 678 762Z"/><path transform="translate(1232.2133 0)" d="M434 -17C606 -17 695 55 745 149H749V0H997V720C997 940 834 1077 559 1077C283 1077 111 938 99 728H342C349 817 431 881 554 881C675 881 747 817 747 727V719C747 647 680 644 484 622C266 599 69 540 69 300C69 89 224 -17 434 -17ZM496 170C386 170 315 219 315 302C315 398 407 437 515 453C619 469 717 485 748 505V391C748 268 661 170 496 170Z"/><path transform="translate(2292.4267 0)" d="M526 -25C787 -25 974 105 974 311C974 466 877 558 668 602L478 641C390 660 338 699 338 762C338 834 406 890 517 890C632 890 709 821 711 727H948C942 944 767 1079 511 1079C253 1079 86 948 86 754C86 594 192 491 394 449L574 412C663 393 718 356 718 292C718 217 644 164 522 164C396 164 322 223 311 326H62C78 99 269 -25 526 -25Z"/><path transform="translate(3278.6400 0)" d="M669 1056H454V1344H201V1056H17V853H201V266C201 85 302 0 517 0H669V203H561C479 203 454 228 454 303V853H669Z"/><path transform="translate(3946.8533 0)" d="M578 -24C825 -24 1021 119 1061 326H825C796 236 711 175 584 175C414 175 316 290 310 462H1074V531C1074 855 872 1080 568 1080C272 1080 63 848 63 527C63 207 261 -24 578 -24ZM312 636C329 787 426 880 572 880C718 880 816 787 832 636Z"/><path transform="translate(5447.2800 0)" d="M55 0H1230V229H378C432 293 486 356 537 420L1222 1280V1490H81V1261H904C852 1202 802 1142 754 1083L55 210Z"/><path transform="translate(6684.4933 0)" d="M124 0H388V536H688C1015 536 1225 721 1225 1014C1225 1306 1020 1490 693 1490H124ZM388 762V1264H678C856 1264 965 1169 965 1014C965 858 856 762 678 762Z"/><path transform="translate(7916.7067 0)" d="M124 0H1079V229H388V1490H124Z"/><path transform="translate(8994.9200 0)" d="M242 -18C328 -18 397 51 397 137C397 223 328 292 242 292C156 292 87 223 87 137C87 51 156 -18 242 -18Z"/></g><g aria-label="Your existing label code." fill="#a5abb5" transform="translate(30.000 154.000) scale(0.0087891 -0.0087891)"><path transform="translate(0.0000 0)" d="M568 0H748V614L1296 1490H1089L791 1008C746 934 702 860 659 787C616 860 573 934 527 1008L228 1490H20L568 614Z"/><path transform="translate(1316.0000 0)" d="M562 -24C855 -24 1052 204 1052 526C1052 850 855 1080 562 1080C269 1080 72 850 72 526C72 204 269 -24 562 -24ZM562 130C362 130 244 286 244 526C244 768 363 926 562 926C761 926 880 767 880 526C880 287 762 130 562 130Z"/><path transform="translate(2440.0000 0)" d="M514 -20C648 -20 755 35 828 155V0H994V1056H824V438C824 225 700 136 546 136C388 136 296 229 296 412V1056H126V400C126 119 301 -20 514 -20Z"/><path transform="translate(3560.0000 0)" d="M126 0H296V650C296 829 397 908 514 908C563 908 604 900 618 896V1066C604 1068 577 1072 546 1072C414 1072 331 999 292 890H288V1056H126Z"/><path transform="translate(4732.0000 0)" d="M562 -24C792 -24 972 114 1012 316H842C810 206 712 130 562 130C362 130 248 272 240 479H1030V526C1030 854 844 1080 550 1080C270 1080 72 847 72 526C72 208 252 -24 562 -24ZM242 625C260 811 377 928 550 928C724 928 842 811 860 625Z"/><path transform="translate(5830.0000 0)" d="M30 0H228L398 240C439 299 480 357 520 416C560 357 600 299 641 240L809 0H1008L619 539L990 1056H793L648 848C605 786 563 725 521 663C480 725 439 786 396 848L253 1056H53L424 538Z"/><path transform="translate(6868.0000 0)" d="M126 0H296V1056H126ZM211 1262C275 1262 327 1314 327 1378C327 1442 275 1494 211 1494C147 1494 95 1442 95 1378C95 1314 147 1262 211 1262Z"/><path transform="translate(7290.0000 0)" d="M494 -24C724 -24 898 92 898 288C898 440 806 533 604 581L434 621C332 645 270 692 270 772C270 862 353 934 483 934C619 934 706 852 708 740H874C868 950 703 1080 483 1080C257 1080 100 952 100 772C100 618 202 518 398 472L568 432C662 410 727 364 727 284C727 190 636 122 490 122C342 122 256 190 244 316H76C90 86 268 -24 494 -24Z"/><path transform="translate(8262.0000 0)" d="M587 1056H373V1344H203V1056H15V910H203V238C203 79 292 0 473 0H587V146H489C402 146 373 174 373 256V910H587Z"/><path transform="translate(8899.0000 0)" d="M126 0H296V1056H126ZM211 1262C275 1262 327 1314 327 1378C327 1442 275 1494 211 1494C147 1494 95 1442 95 1378C95 1314 147 1262 211 1262Z"/><path transform="translate(9321.0000 0)" d="M296 618C296 831 420 920 574 920C732 920 824 827 824 644V0H994V656C994 937 819 1076 606 1076C472 1076 365 1021 292 901V1056H126V0H296Z"/><path transform="translate(10441.0000 0)" d="M568 -432C814 -432 1032 -312 1032 0V1056H866V891H865C792 1021 667 1076 530 1076C255 1076 72 854 72 528C72 203 255 -20 530 -20C669 -20 785 37 863 160H864V0C864 -180 752 -282 568 -282C432 -282 328 -226 298 -112H124C150 -320 330 -432 568 -432ZM556 133C373 133 244 269 244 528C244 787 373 924 556 924C752 924 876 767 876 528C876 289 752 133 556 133Z"/><path transform="translate(12111.0000 0)" d="M296 1490H126V0H296Z"/><path transform="translate(12533.0000 0)" d="M448 -16C640 -16 723 74 762 150H766V0H934V728C934 937 778 1076 532 1076C282 1076 111 933 102 740H275C283 845 385 926 532 926C680 926 766 843 766 728V718C766 637 701 645 500 618C288 590 80 546 80 304C80 93 238 -16 448 -16ZM472 136C337 136 254 195 254 294C254 413 370 455 492 472C613 489 740 508 766 532V400C766 262 680 136 472 136Z"/><path transform="translate(13593.0000 0)" d="M628 -20C903 -20 1086 203 1086 528C1086 854 903 1076 628 1076C491 1076 366 1018 298 900H296V1490H126V0H292V160H294C370 38 491 -20 628 -20ZM602 133C406 133 282 289 282 528C282 767 406 924 602 924C785 924 914 787 914 528C914 269 785 133 602 133Z"/><path transform="translate(14751.0000 0)" d="M562 -24C792 -24 972 114 1012 316H842C810 206 712 130 562 130C362 130 248 272 240 479H1030V526C1030 854 844 1080 550 1080C270 1080 72 847 72 526C72 208 252 -24 562 -24ZM242 625C260 811 377 928 550 928C724 928 842 811 860 625Z"/><path transform="translate(15849.0000 0)" d="M296 1490H126V0H296Z"/><path transform="translate(16783.0000 0)" d="M562 -24C800 -24 978 136 1007 344H832C799 215 720 130 562 130C362 130 244 286 244 526C244 768 363 926 562 926C718 926 810 836 835 712H1007C978 925 802 1080 562 1080C269 1080 72 850 72 526C72 204 269 -24 562 -24Z"/><path transform="translate(17854.0000 0)" d="M562 -24C855 -24 1052 204 1052 526C1052 850 855 1080 562 1080C269 1080 72 850 72 526C72 204 269 -24 562 -24ZM562 130C362 130 244 286 244 526C244 768 363 926 562 926C761 926 880 767 880 526C880 287 762 130 562 130Z"/><path transform="translate(18978.0000 0)" d="M530 -20C667 -20 788 38 864 160H866V0H1032V1490H862V900H860C792 1018 667 1076 530 1076C255 1076 72 854 72 528C72 203 255 -20 530 -20ZM556 133C373 133 244 269 244 528C244 787 373 924 556 924C752 924 876 767 876 528C876 289 752 133 556 133Z"/><path transform="translate(20136.0000 0)" d="M562 -24C792 -24 972 114 1012 316H842C810 206 712 130 562 130C362 130 248 272 240 479H1030V526C1030 854 844 1080 550 1080C270 1080 72 847 72 526C72 208 252 -24 562 -24ZM242 625C260 811 377 928 550 928C724 928 842 811 860 625Z"/><path transform="translate(21234.0000 0)" d="M225 -17C295 -17 350 38 350 108C350 178 295 233 225 233C155 233 100 178 100 108C100 38 155 -17 225 -17Z"/></g><g aria-label="^XA  …  ^XZ" fill="#f5f5f7" transform="translate(30.000 223.000) scale(0.0117188 -0.0117188)"><path transform="translate(0.0000 0)" d="M49 814H241L451 1276H463L674 814H865L563 1446H351Z"/><path transform="translate(955.6667 0)" d="M21 0H272L522 361C576 438 628 515 679 593C730 515 781 438 834 361L1080 0H1337L809 770L1304 1490H1055L850 1191C792 1106 736 1021 681 936C626 1021 571 1106 514 1191L313 1490H58L555 762Z"/><path transform="translate(2355.3333 0)" d="M16 0H252L388 387H989L1121 0H1362L825 1490H557ZM455 576 548 840C589 963 632 1094 692 1287C751 1094 793 963 834 840L924 576Z"/><path transform="translate(4838.3333 0)" d="M1167 -17C1245 -17 1307 44 1307 123C1307 201 1245 263 1167 263C1089 263 1027 201 1027 123C1027 44 1089 -17 1167 -17ZM233 -17C312 -17 373 44 373 123C373 201 312 263 233 263C155 263 94 201 94 123C94 44 155 -17 233 -17ZM700 -17C778 -17 840 44 840 123C840 201 778 263 700 263C622 263 560 201 560 123C560 44 622 -17 700 -17Z"/><path transform="translate(7343.3333 0)" d="M49 814H241L451 1276H463L674 814H865L563 1446H351Z"/><path transform="translate(8299.0000 0)" d="M21 0H272L522 361C576 438 628 515 679 593C730 515 781 438 834 361L1080 0H1337L809 770L1304 1490H1055L850 1191C792 1106 736 1021 681 936C626 1021 571 1106 514 1191L313 1490H58L555 762Z"/><path transform="translate(9698.6667 0)" d="M57 0H1214V195H323C378 259 431 324 482 389L1206 1309V1490H85V1295H941C891 1236 842 1177 796 1118L57 181Z"/></g><g aria-label="Existing labels. Same source." fill="#a5abb5" transform="translate(30.000 267.000) scale(0.0068359 -0.0068359)"><path transform="translate(0.0000 0)" d="M148 0H1117V160H328V683H1059V843H328V1330H1117V1490H148Z"/><path transform="translate(1187.0000 0)" d="M30 0H228L398 240C439 299 480 357 520 416C560 357 600 299 641 240L809 0H1008L619 539L990 1056H793L648 848C605 786 563 725 521 663C480 725 439 786 396 848L253 1056H53L424 538Z"/><path transform="translate(2225.0000 0)" d="M126 0H296V1056H126ZM211 1262C275 1262 327 1314 327 1378C327 1442 275 1494 211 1494C147 1494 95 1442 95 1378C95 1314 147 1262 211 1262Z"/><path transform="translate(2647.0000 0)" d="M494 -24C724 -24 898 92 898 288C898 440 806 533 604 581L434 621C332 645 270 692 270 772C270 862 353 934 483 934C619 934 706 852 708 740H874C868 950 703 1080 483 1080C257 1080 100 952 100 772C100 618 202 518 398 472L568 432C662 410 727 364 727 284C727 190 636 122 490 122C342 122 256 190 244 316H76C90 86 268 -24 494 -24Z"/><path transform="translate(3619.0000 0)" d="M587 1056H373V1344H203V1056H15V910H203V238C203 79 292 0 473 0H587V146H489C402 146 373 174 373 256V910H587Z"/><path transform="translate(4256.0000 0)" d="M126 0H296V1056H126ZM211 1262C275 1262 327 1314 327 1378C327 1442 275 1494 211 1494C147 1494 95 1442 95 1378C95 1314 147 1262 211 1262Z"/><path transform="translate(4678.0000 0)" d="M296 618C296 831 420 920 574 920C732 920 824 827 824 644V0H994V656C994 937 819 1076 606 1076C472 1076 365 1021 292 901V1056H126V0H296Z"/><path transform="translate(5798.0000 0)" d="M568 -432C814 -432 1032 -312 1032 0V1056H866V891H865C792 1021 667 1076 530 1076C255 1076 72 854 72 528C72 203 255 -20 530 -20C669 -20 785 37 863 160H864V0C864 -180 752 -282 568 -282C432 -282 328 -226 298 -112H124C150 -320 330 -432 568 -432ZM556 133C373 133 244 269 244 528C244 787 373 924 556 924C752 924 876 767 876 528C876 289 752 133 556 133Z"/><path transform="translate(7468.0000 0)" d="M296 1490H126V0H296Z"/><path transform="translate(7890.0000 0)" d="M448 -16C640 -16 723 74 762 150H766V0H934V728C934 937 778 1076 532 1076C282 1076 111 933 102 740H275C283 845 385 926 532 926C680 926 766 843 766 728V718C766 637 701 645 500 618C288 590 80 546 80 304C80 93 238 -16 448 -16ZM472 136C337 136 254 195 254 294C254 413 370 455 492 472C613 489 740 508 766 532V400C766 262 680 136 472 136Z"/><path transform="translate(8950.0000 0)" d="M628 -20C903 -20 1086 203 1086 528C1086 854 903 1076 628 1076C491 1076 366 1018 298 900H296V1490H126V0H292V160H294C370 38 491 -20 628 -20ZM602 133C406 133 282 289 282 528C282 767 406 924 602 924C785 924 914 787 914 528C914 269 785 133 602 133Z"/><path transform="translate(10108.0000 0)" d="M562 -24C792 -24 972 114 1012 316H842C810 206 712 130 562 130C362 130 248 272 240 479H1030V526C1030 854 844 1080 550 1080C270 1080 72 847 72 526C72 208 252 -24 562 -24ZM242 625C260 811 377 928 550 928C724 928 842 811 860 625Z"/><path transform="translate(11206.0000 0)" d="M296 1490H126V0H296Z"/><path transform="translate(11628.0000 0)" d="M494 -24C724 -24 898 92 898 288C898 440 806 533 604 581L434 621C332 645 270 692 270 772C270 862 353 934 483 934C619 934 706 852 708 740H874C868 950 703 1080 483 1080C257 1080 100 952 100 772C100 618 202 518 398 472L568 432C662 410 727 364 727 284C727 190 636 122 490 122C342 122 256 190 244 316H76C90 86 268 -24 494 -24Z"/><path transform="translate(12600.0000 0)" d="M225 -17C295 -17 350 38 350 108C350 178 295 233 225 233C155 233 100 178 100 108C100 38 155 -17 225 -17Z"/><path transform="translate(13562.0000 0)" d="M640 -24C964 -24 1180 151 1180 410C1180 618 1044 746 754 818L585 860C369 914 286 981 286 1097C286 1245 423 1349 616 1349C818 1349 949 1236 960 1050H1138C1130 1336 932 1514 622 1514C311 1514 108 1345 108 1088C108 885 234 767 538 692L705 651C920 598 1000 526 1000 402C1000 242 857 140 640 140C401 140 262 267 262 480H78C78 170 296 -24 640 -24Z"/><path transform="translate(14820.0000 0)" d="M448 -16C640 -16 723 74 762 150H766V0H934V728C934 937 778 1076 532 1076C282 1076 111 933 102 740H275C283 845 385 926 532 926C680 926 766 843 766 728V718C766 637 701 645 500 618C288 590 80 546 80 304C80 93 238 -16 448 -16ZM472 136C337 136 254 195 254 294C254 413 370 455 492 472C613 489 740 508 766 532V400C766 262 680 136 472 136Z"/><path transform="translate(15880.0000 0)" d="M126 0H296V644C296 826 418 920 551 920C679 920 774 836 774 710V0H944V672C944 815 1038 920 1193 920C1314 920 1422 856 1422 692V0H1592V692C1592 952 1434 1076 1241 1076C1084 1076 966 994 908 886C864 992 750 1076 605 1076C476 1076 359 1009 292 885V1056H126Z"/><path transform="translate(17598.0000 0)" d="M562 -24C792 -24 972 114 1012 316H842C810 206 712 130 562 130C362 130 248 272 240 479H1030V526C1030 854 844 1080 550 1080C270 1080 72 847 72 526C72 208 252 -24 562 -24ZM242 625C260 811 377 928 550 928C724 928 842 811 860 625Z"/><path transform="translate(19208.0000 0)" d="M494 -24C724 -24 898 92 898 288C898 440 806 533 604 581L434 621C332 645 270 692 270 772C270 862 353 934 483 934C619 934 706 852 708 740H874C868 950 703 1080 483 1080C257 1080 100 952 100 772C100 618 202 518 398 472L568 432C662 410 727 364 727 284C727 190 636 122 490 122C342 122 256 190 244 316H76C90 86 268 -24 494 -24Z"/><path transform="translate(20180.0000 0)" d="M562 -24C855 -24 1052 204 1052 526C1052 850 855 1080 562 1080C269 1080 72 850 72 526C72 204 269 -24 562 -24ZM562 130C362 130 244 286 244 526C244 768 363 926 562 926C761 926 880 767 880 526C880 287 762 130 562 130Z"/><path transform="translate(21304.0000 0)" d="M514 -20C648 -20 755 35 828 155V0H994V1056H824V438C824 225 700 136 546 136C388 136 296 229 296 412V1056H126V400C126 119 301 -20 514 -20Z"/><path transform="translate(22424.0000 0)" d="M126 0H296V650C296 829 397 908 514 908C563 908 604 900 618 896V1066C604 1068 577 1072 546 1072C414 1072 331 999 292 890H288V1056H126Z"/><path transform="translate(23084.0000 0)" d="M562 -24C800 -24 978 136 1007 344H832C799 215 720 130 562 130C362 130 244 286 244 526C244 768 363 926 562 926C718 926 810 836 835 712H1007C978 925 802 1080 562 1080C269 1080 72 850 72 526C72 204 269 -24 562 -24Z"/><path transform="translate(24155.0000 0)" d="M562 -24C792 -24 972 114 1012 316H842C810 206 712 130 562 130C362 130 248 272 240 479H1030V526C1030 854 844 1080 550 1080C270 1080 72 847 72 526C72 208 252 -24 562 -24ZM242 625C260 811 377 928 550 928C724 928 842 811 860 625Z"/><path transform="translate(25253.0000 0)" d="M225 -17C295 -17 350 38 350 108C350 178 295 233 225 233C155 233 100 178 100 108C100 38 155 -17 225 -17Z"/></g><rect x="468" y="16" width="344" height="290" rx="24" fill="#161b22"/><g aria-label="02" fill="#70b7ff" transform="translate(498.000 69.000) scale(0.0073242 -0.0073242)"><path transform="translate(0.0000 0)" d="M641 -24C986 -24 1200 274 1200 744C1200 1216 986 1514 641 1514C296 1514 81 1216 81 744C81 274 296 -24 641 -24ZM641 165C424 165 291 384 291 744C291 1106 424 1325 641 1325C857 1325 990 1106 990 744C990 384 857 165 641 165Z"/><path transform="translate(1281.0000 0)" d="M83 0H1092V189H385V191L759 527C974 719 1084 861 1084 1059C1084 1329 879 1514 591 1514C284 1514 85 1304 85 998H292C292 1200 402 1325 592 1325C766 1325 875 1219 875 1049C875 900 789 808 619 654L83 176Z"/></g><g aria-label="Render." fill="#f5f5f7" transform="translate(498.000 118.000) scale(0.0146484 -0.0146484)"><path transform="translate(0.0000 0)" d="M124 0H388V542H688C691 542 693 542 695 542L975 0H1266L955 590C1132 662 1238 811 1238 1014C1238 1306 1033 1490 705 1490H124ZM388 760V1266H690C868 1266 978 1169 978 1014C978 858 868 760 692 760Z"/><path transform="translate(1271.2133 0)" d="M578 -24C825 -24 1021 119 1061 326H825C796 236 711 175 584 175C414 175 316 290 310 462H1074V531C1074 855 872 1080 568 1080C272 1080 63 848 63 527C63 207 261 -24 578 -24ZM312 636C329 787 426 880 572 880C718 880 816 787 832 636Z"/><path transform="translate(2356.4267 0)" d="M364 597C364 777 463 856 595 856C730 856 808 775 808 620V0H1061V660C1061 931 905 1077 684 1077C539 1077 432 1013 360 894V1056H112V0H364Z"/><path transform="translate(3481.6400 0)" d="M520 -21C658 -21 774 39 840 161H842V0H1090V1490H838V906H836C768 1022 655 1077 518 1077C247 1077 63 854 63 529C63 200 244 -21 520 -21ZM579 190C423 190 318 310 318 529C318 747 423 868 579 868C744 868 852 734 852 529C852 323 744 190 579 190Z"/><path transform="translate(4635.8533 0)" d="M578 -24C825 -24 1021 119 1061 326H825C796 236 711 175 584 175C414 175 316 290 310 462H1074V531C1074 855 872 1080 568 1080C272 1080 63 848 63 527C63 207 261 -24 578 -24ZM312 636C329 787 426 880 572 880C718 880 816 787 832 636Z"/><path transform="translate(5721.0667 0)" d="M112 0H364V598C364 763 457 846 577 846C627 846 677 841 696 838V1062C676 1064 648 1066 614 1066C478 1066 397 1002 358 881H355V1056H112Z"/><path transform="translate(6402.2800 0)" d="M242 -18C328 -18 397 51 397 137C397 223 328 292 242 292C156 292 87 223 87 137C87 51 156 -18 242 -18Z"/></g><g aria-label="Browser or HTTP API." fill="#a5abb5" transform="translate(498.000 154.000) scale(0.0087891 -0.0087891)"><path transform="translate(0.0000 0)" d="M148 0H694C1052 0 1227 163 1227 418C1227 631 1093 742 924 770V772C1076 823 1166 923 1166 1094C1166 1337 985 1490 686 1490H148ZM328 160V678H704C922 678 1044 576 1044 411C1044 246 919 160 694 160ZM328 836V1330H693C878 1330 988 1235 988 1083C988 931 878 836 693 836Z"/><path transform="translate(1307.0000 0)" d="M126 0H296V650C296 829 397 908 514 908C563 908 604 900 618 896V1066C604 1068 577 1072 546 1072C414 1072 331 999 292 890H288V1056H126Z"/><path transform="translate(1967.0000 0)" d="M562 -24C855 -24 1052 204 1052 526C1052 850 855 1080 562 1080C269 1080 72 850 72 526C72 204 269 -24 562 -24ZM562 130C362 130 244 286 244 526C244 768 363 926 562 926C761 926 880 767 880 526C880 287 762 130 562 130Z"/><path transform="translate(3091.0000 0)" d="M358 0H532L674 480C708 596 739 718 770 837C801 718 832 596 865 480L1004 0H1182L1510 1056H1332L1196 592C1159 465 1125 332 1090 203C1055 332 1022 465 986 592L854 1056H686L552 592C515 464 481 328 446 198C411 328 378 464 341 592L208 1056H30Z"/><path transform="translate(4631.0000 0)" d="M494 -24C724 -24 898 92 898 288C898 440 806 533 604 581L434 621C332 645 270 692 270 772C270 862 353 934 483 934C619 934 706 852 708 740H874C868 950 703 1080 483 1080C257 1080 100 952 100 772C100 618 202 518 398 472L568 432C662 410 727 364 727 284C727 190 636 122 490 122C342 122 256 190 244 316H76C90 86 268 -24 494 -24Z"/><path transform="translate(5603.0000 0)" d="M562 -24C792 -24 972 114 1012 316H842C810 206 712 130 562 130C362 130 248 272 240 479H1030V526C1030 854 844 1080 550 1080C270 1080 72 847 72 526C72 208 252 -24 562 -24ZM242 625C260 811 377 928 550 928C724 928 842 811 860 625Z"/><path transform="translate(6701.0000 0)" d="M126 0H296V650C296 829 397 908 514 908C563 908 604 900 618 896V1066C604 1068 577 1072 546 1072C414 1072 331 999 292 890H288V1056H126Z"/><path transform="translate(7873.0000 0)" d="M562 -24C855 -24 1052 204 1052 526C1052 850 855 1080 562 1080C269 1080 72 850 72 526C72 204 269 -24 562 -24ZM562 130C362 130 244 286 244 526C244 768 363 926 562 926C761 926 880 767 880 526C880 287 762 130 562 130Z"/><path transform="translate(8997.0000 0)" d="M126 0H296V650C296 829 397 908 514 908C563 908 604 900 618 896V1066C604 1068 577 1072 546 1072C414 1072 331 999 292 890H288V1056H126Z"/><path transform="translate(10169.0000 0)" d="M148 0H328V683H1122V0H1302V1490H1122V843H328V1490H148Z"/><path transform="translate(11619.0000 0)" d="M50 1330H536V0H716V1330H1200V1490H50Z"/><path transform="translate(12869.0000 0)" d="M50 1330H536V0H716V1330H1200V1490H50Z"/><path transform="translate(14119.0000 0)" d="M148 0H328V585H674C985 585 1188 760 1188 1038C1188 1316 993 1490 682 1490H148ZM328 745V1330H676C883 1330 1010 1219 1010 1038C1010 857 883 745 676 745Z"/><path transform="translate(15884.0000 0)" d="M20 0H208L358 418H980L1126 0H1318L774 1490H570ZM415 578 530 898C568 1003 608 1123 672 1321C736 1123 776 1003 813 898L925 578Z"/><path transform="translate(17222.0000 0)" d="M148 0H328V585H674C985 585 1188 760 1188 1038C1188 1316 993 1490 682 1490H148ZM328 745V1330H676C883 1330 1010 1219 1010 1038C1010 857 883 745 676 745Z"/><path transform="translate(18475.0000 0)" d="M328 1490H148V0H328Z"/><path transform="translate(18951.0000 0)" d="M225 -17C295 -17 350 38 350 108C350 178 295 233 225 233C155 233 100 178 100 108C100 38 155 -17 225 -17Z"/></g><g transform="translate(496 188) scale(0.06)"><path d="M 578.77 428.45 L 547.13 444.96 L 82.75 862.56 L 80.69 872.87 L 661.33 877.00 L 688.16 870.12 L 697.10 845.36 L 679.21 827.47 L 221.03 824.72 L 589.78 472.48 Z M 920.00 513.76 L 909.68 487.62 L 692.97 244.08 L 686.78 130.57 L 677.15 123.00 L 612.48 183.54 L 585.65 224.13 L 472.83 244.77 L 407.47 267.47 L 282.26 334.89 L 183.88 419.51 L 97.89 529.58 L 317.35 369.98 L 459.75 303.93 L 543.00 281.23 L 616.61 275.04 L 640.69 232.38 L 662.01 285.36 L 865.65 505.50 L 862.21 546.09 L 848.45 560.54 L 823.69 563.29 L 824.37 586.68 L 842.95 599.75 L 873.22 596.31 L 909.68 552.97 Z" fill="#f5f5f7" fill-rule="evenodd"/></g><g aria-label="Z2PL" fill="#f5f5f7" transform="translate(569.000 229.000) scale(0.0146484 -0.0146484)"><path transform="translate(0.0000 0)" d="M55 0H1230V229H378C432 293 486 356 537 420L1222 1280V1490H81V1261H904C852 1202 802 1142 754 1083L55 210Z"/><path transform="translate(1285.0000 0)" d="M81 0H1120V218H441V220L785 525C997 710 1113 851 1113 1054C1113 1331 900 1514 603 1514C284 1514 80 1303 80 988H325C325 1179 429 1296 603 1296C764 1296 865 1198 865 1042C865 897 773 808 622 674L81 201Z"/><path transform="translate(2485.0000 0)" d="M124 0H388V536H688C1015 536 1225 721 1225 1014C1225 1306 1020 1490 693 1490H124ZM388 762V1264H678C856 1264 965 1169 965 1014C965 858 856 762 678 762Z"/><path transform="translate(3765.0000 0)" d="M124 0H1079V229H388V1490H124Z"/></g><g aria-label="Preview or integrate." fill="#a5abb5" transform="translate(498.000 267.000) scale(0.0068359 -0.0068359)"><path transform="translate(0.0000 0)" d="M148 0H328V585H674C985 585 1188 760 1188 1038C1188 1316 993 1490 682 1490H148ZM328 745V1330H676C883 1330 1010 1219 1010 1038C1010 857 883 745 676 745Z"/><path transform="translate(1253.0000 0)" d="M126 0H296V650C296 829 397 908 514 908C563 908 604 900 618 896V1066C604 1068 577 1072 546 1072C414 1072 331 999 292 890H288V1056H126Z"/><path transform="translate(1913.0000 0)" d="M562 -24C792 -24 972 114 1012 316H842C810 206 712 130 562 130C362 130 248 272 240 479H1030V526C1030 854 844 1080 550 1080C270 1080 72 847 72 526C72 208 252 -24 562 -24ZM242 625C260 811 377 928 550 928C724 928 842 811 860 625Z"/><path transform="translate(3011.0000 0)" d="M438 0H610L1018 1056H837L612 448C582 367 555 286 527 205C500 286 472 367 442 448L214 1056H30Z"/><path transform="translate(4059.0000 0)" d="M126 0H296V1056H126ZM211 1262C275 1262 327 1314 327 1378C327 1442 275 1494 211 1494C147 1494 95 1442 95 1378C95 1314 147 1262 211 1262Z"/><path transform="translate(4481.0000 0)" d="M562 -24C792 -24 972 114 1012 316H842C810 206 712 130 562 130C362 130 248 272 240 479H1030V526C1030 854 844 1080 550 1080C270 1080 72 847 72 526C72 208 252 -24 562 -24ZM242 625C260 811 377 928 550 928C724 928 842 811 860 625Z"/><path transform="translate(5579.0000 0)" d="M358 0H532L674 480C708 596 739 718 770 837C801 718 832 596 865 480L1004 0H1182L1510 1056H1332L1196 592C1159 465 1125 332 1090 203C1055 332 1022 465 986 592L854 1056H686L552 592C515 464 481 328 446 198C411 328 378 464 341 592L208 1056H30Z"/><path transform="translate(7631.0000 0)" d="M562 -24C855 -24 1052 204 1052 526C1052 850 855 1080 562 1080C269 1080 72 850 72 526C72 204 269 -24 562 -24ZM562 130C362 130 244 286 244 526C244 768 363 926 562 926C761 926 880 767 880 526C880 287 762 130 562 130Z"/><path transform="translate(8755.0000 0)" d="M126 0H296V650C296 829 397 908 514 908C563 908 604 900 618 896V1066C604 1068 577 1072 546 1072C414 1072 331 999 292 890H288V1056H126Z"/><path transform="translate(9927.0000 0)" d="M126 0H296V1056H126ZM211 1262C275 1262 327 1314 327 1378C327 1442 275 1494 211 1494C147 1494 95 1442 95 1378C95 1314 147 1262 211 1262Z"/><path transform="translate(10349.0000 0)" d="M296 618C296 831 420 920 574 920C732 920 824 827 824 644V0H994V656C994 937 819 1076 606 1076C472 1076 365 1021 292 901V1056H126V0H296Z"/><path transform="translate(11469.0000 0)" d="M587 1056H373V1344H203V1056H15V910H203V238C203 79 292 0 473 0H587V146H489C402 146 373 174 373 256V910H587Z"/><path transform="translate(12106.0000 0)" d="M562 -24C792 -24 972 114 1012 316H842C810 206 712 130 562 130C362 130 248 272 240 479H1030V526C1030 854 844 1080 550 1080C270 1080 72 847 72 526C72 208 252 -24 562 -24ZM242 625C260 811 377 928 550 928C724 928 842 811 860 625Z"/><path transform="translate(13204.0000 0)" d="M568 -432C814 -432 1032 -312 1032 0V1056H866V891H865C792 1021 667 1076 530 1076C255 1076 72 854 72 528C72 203 255 -20 530 -20C669 -20 785 37 863 160H864V0C864 -180 752 -282 568 -282C432 -282 328 -226 298 -112H124C150 -320 330 -432 568 -432ZM556 133C373 133 244 269 244 528C244 787 373 924 556 924C752 924 876 767 876 528C876 289 752 133 556 133Z"/><path transform="translate(14362.0000 0)" d="M126 0H296V650C296 829 397 908 514 908C563 908 604 900 618 896V1066C604 1068 577 1072 546 1072C414 1072 331 999 292 890H288V1056H126Z"/><path transform="translate(15022.0000 0)" d="M448 -16C640 -16 723 74 762 150H766V0H934V728C934 937 778 1076 532 1076C282 1076 111 933 102 740H275C283 845 385 926 532 926C680 926 766 843 766 728V718C766 637 701 645 500 618C288 590 80 546 80 304C80 93 238 -16 448 -16ZM472 136C337 136 254 195 254 294C254 413 370 455 492 472C613 489 740 508 766 532V400C766 262 680 136 472 136Z"/><path transform="translate(16082.0000 0)" d="M587 1056H373V1344H203V1056H15V910H203V238C203 79 292 0 473 0H587V146H489C402 146 373 174 373 256V910H587Z"/><path transform="translate(16719.0000 0)" d="M562 -24C792 -24 972 114 1012 316H842C810 206 712 130 562 130C362 130 248 272 240 479H1030V526C1030 854 844 1080 550 1080C270 1080 72 847 72 526C72 208 252 -24 562 -24ZM242 625C260 811 377 928 550 928C724 928 842 811 860 625Z"/><path transform="translate(17817.0000 0)" d="M225 -17C295 -17 350 38 350 108C350 178 295 233 225 233C155 233 100 178 100 108C100 38 155 -17 225 -17Z"/></g><rect x="936" y="16" width="344" height="290" rx="24" fill="#161b22"/><g aria-label="03" fill="#70b7ff" transform="translate(966.000 69.000) scale(0.0073242 -0.0073242)"><path transform="translate(0.0000 0)" d="M641 -24C986 -24 1200 274 1200 744C1200 1216 986 1514 641 1514C296 1514 81 1216 81 744C81 274 296 -24 641 -24ZM641 165C424 165 291 384 291 744C291 1106 424 1325 641 1325C857 1325 990 1106 990 744C990 384 857 165 641 165Z"/><path transform="translate(1281.0000 0)" d="M626 -24C935 -24 1159 160 1159 420C1159 596 1036 739 840 769V772C1007 818 1113 940 1113 1097C1113 1340 902 1514 618 1514C321 1514 119 1322 119 1052H332C332 1225 441 1330 617 1330C788 1330 901 1234 901 1080C901 942 780 853 598 853H474V672H598C803 672 941 574 941 426C941 265 811 161 622 161C424 161 307 278 307 476H88C88 187 297 -24 626 -24Z"/></g><g aria-label="Use the file." fill="#f5f5f7" transform="translate(966.000 118.000) scale(0.0146484 -0.0146484)"><path transform="translate(0.0000 0)" d="M721 -24C1085 -24 1323 198 1323 515V1490H1062V536C1062 346 930 210 721 210C512 210 379 347 379 536V1490H118V515C118 197 356 -24 721 -24Z"/><path transform="translate(1393.2133 0)" d="M526 -25C787 -25 974 105 974 311C974 466 877 558 668 602L478 641C390 660 338 699 338 762C338 834 406 890 517 890C632 890 709 821 711 727H948C942 944 767 1079 511 1079C253 1079 86 948 86 754C86 594 192 491 394 449L574 412C663 393 718 356 718 292C718 217 644 164 522 164C396 164 322 223 311 326H62C78 99 269 -25 526 -25Z"/><path transform="translate(2379.4267 0)" d="M578 -24C825 -24 1021 119 1061 326H825C796 236 711 175 584 175C414 175 316 290 310 462H1074V531C1074 855 872 1080 568 1080C272 1080 63 848 63 527C63 207 261 -24 578 -24ZM312 636C329 787 426 880 572 880C718 880 816 787 832 636Z"/><path transform="translate(3879.8533 0)" d="M669 1056H454V1344H201V1056H17V853H201V266C201 85 302 0 517 0H669V203H561C479 203 454 228 454 303V853H669Z"/><path transform="translate(4548.0667 0)" d="M364 597C364 777 463 856 595 856C730 856 808 775 808 620V0H1061V660C1061 931 905 1077 684 1077C542 1077 436 1016 364 901V1490H112V0H364Z"/><path transform="translate(5673.2800 0)" d="M578 -24C825 -24 1021 119 1061 326H825C796 236 711 175 584 175C414 175 316 290 310 462H1074V531C1074 855 872 1080 568 1080C272 1080 63 848 63 527C63 207 261 -24 578 -24ZM312 636C329 787 426 880 572 880C718 880 816 787 832 636Z"/><path transform="translate(7173.7067 0)" d="M675 1056H460V1168C460 1254 492 1287 578 1287H675V1490H528C319 1490 207 1392 207 1210V1056H17V853H207V0H460V853H675Z"/><path transform="translate(7840.9200 0)" d="M112 0H364V1056H112ZM238 1213C324 1213 389 1275 389 1357C389 1438 324 1500 238 1500C152 1500 87 1438 87 1357C87 1275 152 1213 238 1213Z"/><path transform="translate(8269.1333 0)" d="M364 1490H112V0H364Z"/><path transform="translate(8697.3467 0)" d="M578 -24C825 -24 1021 119 1061 326H825C796 236 711 175 584 175C414 175 316 290 310 462H1074V531C1074 855 872 1080 568 1080C272 1080 63 848 63 527C63 207 261 -24 578 -24ZM312 636C329 787 426 880 572 880C718 880 816 787 832 636Z"/><path transform="translate(9782.5600 0)" d="M242 -18C328 -18 397 51 397 137C397 223 328 292 242 292C156 292 87 223 87 137C87 51 156 -18 242 -18Z"/></g><g aria-label="PDF, SVG or PNG." fill="#a5abb5" transform="translate(966.000 154.000) scale(0.0087891 -0.0087891)"><path transform="translate(0.0000 0)" d="M148 0H328V585H674C985 585 1188 760 1188 1038C1188 1316 993 1490 682 1490H148ZM328 745V1330H676C883 1330 1010 1219 1010 1038C1010 857 883 745 676 745Z"/><path transform="translate(1253.0000 0)" d="M608 0C1062 0 1322 282 1322 748C1322 1210 1062 1490 628 1490H148V0ZM328 160V1330H616C966 1330 1142 1108 1142 748C1142 384 966 160 596 160Z"/><path transform="translate(2665.0000 0)" d="M148 0H328V683H1025V843H328V1330H1085V1490H148Z"/><path transform="translate(3800.0000 0)" d="M56 -281H180L326 208H144Z"/><path transform="translate(4762.0000 0)" d="M640 -24C964 -24 1180 151 1180 410C1180 618 1044 746 754 818L585 860C369 914 286 981 286 1097C286 1245 423 1349 616 1349C818 1349 949 1236 960 1050H1138C1130 1336 932 1514 622 1514C311 1514 108 1345 108 1088C108 885 234 767 538 692L705 651C920 598 1000 526 1000 402C1000 242 857 140 640 140C401 140 262 267 262 480H78C78 170 296 -24 640 -24Z"/><path transform="translate(6020.0000 0)" d="M570 0H774L1318 1490H1130L816 592C786 505 740 369 675 165C608 369 563 505 532 592L210 1490H20Z"/><path transform="translate(7358.0000 0)" d="M771 -24C1126 -24 1400 236 1400 584V745H832V585H1222C1220 323 1019 144 771 144C473 144 270 390 270 744C270 1100 473 1346 771 1346C990 1346 1163 1208 1209 1008H1391C1339 1306 1087 1514 771 1514C374 1514 90 1195 90 744C90 296 375 -24 771 -24Z"/><path transform="translate(9366.0000 0)" d="M562 -24C855 -24 1052 204 1052 526C1052 850 855 1080 562 1080C269 1080 72 850 72 526C72 204 269 -24 562 -24ZM562 130C362 130 244 286 244 526C244 768 363 926 562 926C761 926 880 767 880 526C880 287 762 130 562 130Z"/><path transform="translate(10490.0000 0)" d="M126 0H296V650C296 829 397 908 514 908C563 908 604 900 618 896V1066C604 1068 577 1072 546 1072C414 1072 331 999 292 890H288V1056H126Z"/><path transform="translate(11662.0000 0)" d="M148 0H328V585H674C985 585 1188 760 1188 1038C1188 1316 993 1490 682 1490H148ZM328 745V1330H676C883 1330 1010 1219 1010 1038C1010 857 883 745 676 745Z"/><path transform="translate(12915.0000 0)" d="M148 0H328V864C328 930 326 1058 319 1243C426 1064 510 926 551 862L1097 0H1306V1490H1126V528C1126 478 1129 349 1132 245C1072 351 1004 464 969 520L355 1490H148Z"/><path transform="translate(14369.0000 0)" d="M771 -24C1126 -24 1400 236 1400 584V745H832V585H1222C1220 323 1019 144 771 144C473 144 270 390 270 744C270 1100 473 1346 771 1346C990 1346 1163 1208 1209 1008H1391C1339 1306 1087 1514 771 1514C374 1514 90 1195 90 744C90 296 375 -24 771 -24Z"/><path transform="translate(15865.0000 0)" d="M225 -17C295 -17 350 38 350 108C350 178 295 233 225 233C155 233 100 178 100 108C100 38 155 -17 225 -17Z"/></g><rect x="966" y="202" width="82" height="38" rx="12" fill="#20262e" stroke="#373f49" stroke-width="1"/><g aria-label="PDF" fill="#f5f5f7" transform="translate(992.938 227.000) scale(0.0073242 -0.0073242)"><path transform="translate(0.0000 0)" d="M136 0H358V561H681C1000 561 1207 740 1207 1026C1207 1311 1007 1490 688 1490H136ZM358 753V1297H677C869 1297 988 1194 988 1026C988 858 869 753 677 753Z"/><path transform="translate(1266.0000 0)" d="M618 0C1073 0 1339 284 1339 747C1339 1208 1072 1490 633 1490H136V0ZM358 193V1297H619C951 1297 1116 1092 1116 747C1116 400 951 193 604 193Z"/><path transform="translate(2686.0000 0)" d="M136 0H358V657H1049V849H358V1295H1106V1490H136Z"/></g><rect x="1062" y="202" width="82" height="38" rx="12" fill="#20262e" stroke="#373f49" stroke-width="1"/><g aria-label="SVG" fill="#f5f5f7" transform="translate(1087.773 227.000) scale(0.0073242 -0.0073242)"><path transform="translate(0.0000 0)" d="M652 -24C990 -24 1209 152 1209 420C1209 633 1071 762 772 833L611 871C406 920 326 982 326 1090C326 1225 453 1320 633 1320C821 1320 943 1215 954 1044H1169C1160 1335 957 1514 636 1514C316 1514 105 1341 105 1079C105 873 237 748 538 677L701 638C908 589 987 523 987 408C987 263 854 170 652 170C429 170 298 286 297 483H75C75 168 295 -24 652 -24Z"/><path transform="translate(1284.0000 0)" d="M557 0H824L1357 1490H1122L835 650C799 542 754 398 694 202C632 398 586 542 550 650L255 1490H16Z"/><path transform="translate(2658.0000 0)" d="M771 -24C1137 -24 1411 235 1411 590V761H823V576H1192C1190 339 1008 179 774 179C491 179 304 406 304 744C304 1084 490 1311 773 1311C978 1311 1134 1186 1176 1002H1401C1354 1305 1094 1514 770 1514C371 1514 81 1203 81 744C81 292 367 -24 771 -24Z"/></g><rect x="1158" y="202" width="82" height="38" rx="12" fill="#20262e" stroke="#373f49" stroke-width="1"/><g aria-label="PNG" fill="#f5f5f7" transform="translate(1183.509 227.000) scale(0.0073242 -0.0073242)"><path transform="translate(0.0000 0)" d="M136 0H358V561H681C1000 561 1207 740 1207 1026C1207 1311 1007 1490 688 1490H136ZM358 753V1297H677C869 1297 988 1194 988 1026C988 858 869 753 677 753Z"/><path transform="translate(1266.0000 0)" d="M136 0H358V806C358 872 357 1001 350 1176C449 1006 530 871 572 805L1081 0H1329V1490H1106V603C1106 549 1108 422 1112 314C1052 420 986 533 951 589L382 1490H136Z"/><path transform="translate(2730.0000 0)" d="M771 -24C1137 -24 1411 235 1411 590V761H823V576H1192C1190 339 1008 179 774 179C491 179 304 406 304 744C304 1084 490 1311 773 1311C978 1311 1134 1186 1176 1002H1401C1354 1305 1094 1514 770 1514C371 1514 81 1203 81 744C81 292 367 -24 771 -24Z"/></g><g aria-label="Print. Embed. Share." fill="#a5abb5" transform="translate(966.000 267.000) scale(0.0068359 -0.0068359)"><path transform="translate(0.0000 0)" d="M148 0H328V585H674C985 585 1188 760 1188 1038C1188 1316 993 1490 682 1490H148ZM328 745V1330H676C883 1330 1010 1219 1010 1038C1010 857 883 745 676 745Z"/><path transform="translate(1253.0000 0)" d="M126 0H296V650C296 829 397 908 514 908C563 908 604 900 618 896V1066C604 1068 577 1072 546 1072C414 1072 331 999 292 890H288V1056H126Z"/><path transform="translate(1913.0000 0)" d="M126 0H296V1056H126ZM211 1262C275 1262 327 1314 327 1378C327 1442 275 1494 211 1494C147 1494 95 1442 95 1378C95 1314 147 1262 211 1262Z"/><path transform="translate(2335.0000 0)" d="M296 618C296 831 420 920 574 920C732 920 824 827 824 644V0H994V656C994 937 819 1076 606 1076C472 1076 365 1021 292 901V1056H126V0H296Z"/><path transform="translate(3455.0000 0)" d="M587 1056H373V1344H203V1056H15V910H203V238C203 79 292 0 473 0H587V146H489C402 146 373 174 373 256V910H587Z"/><path transform="translate(4092.0000 0)" d="M225 -17C295 -17 350 38 350 108C350 178 295 233 225 233C155 233 100 178 100 108C100 38 155 -17 225 -17Z"/><path transform="translate(5054.0000 0)" d="M148 0H1117V160H328V683H1059V843H328V1330H1117V1490H148Z"/><path transform="translate(6241.0000 0)" d="M126 0H296V644C296 826 418 920 551 920C679 920 774 836 774 710V0H944V672C944 815 1038 920 1193 920C1314 920 1422 856 1422 692V0H1592V692C1592 952 1434 1076 1241 1076C1084 1076 966 994 908 886C864 992 750 1076 605 1076C476 1076 359 1009 292 885V1056H126Z"/><path transform="translate(7959.0000 0)" d="M628 -20C903 -20 1086 203 1086 528C1086 854 903 1076 628 1076C491 1076 366 1018 298 900H296V1490H126V0H292V160H294C370 38 491 -20 628 -20ZM602 133C406 133 282 289 282 528C282 767 406 924 602 924C785 924 914 787 914 528C914 269 785 133 602 133Z"/><path transform="translate(9117.0000 0)" d="M562 -24C792 -24 972 114 1012 316H842C810 206 712 130 562 130C362 130 248 272 240 479H1030V526C1030 854 844 1080 550 1080C270 1080 72 847 72 526C72 208 252 -24 562 -24ZM242 625C260 811 377 928 550 928C724 928 842 811 860 625Z"/><path transform="translate(10215.0000 0)" d="M530 -20C667 -20 788 38 864 160H866V0H1032V1490H862V900H860C792 1018 667 1076 530 1076C255 1076 72 854 72 528C72 203 255 -20 530 -20ZM556 133C373 133 244 269 244 528C244 787 373 924 556 924C752 924 876 767 876 528C876 289 752 133 556 133Z"/><path transform="translate(11373.0000 0)" d="M225 -17C295 -17 350 38 350 108C350 178 295 233 225 233C155 233 100 178 100 108C100 38 155 -17 225 -17Z"/><path transform="translate(12335.0000 0)" d="M640 -24C964 -24 1180 151 1180 410C1180 618 1044 746 754 818L585 860C369 914 286 981 286 1097C286 1245 423 1349 616 1349C818 1349 949 1236 960 1050H1138C1130 1336 932 1514 622 1514C311 1514 108 1345 108 1088C108 885 234 767 538 692L705 651C920 598 1000 526 1000 402C1000 242 857 140 640 140C401 140 262 267 262 480H78C78 170 296 -24 640 -24Z"/><path transform="translate(13593.0000 0)" d="M296 618C296 831 420 920 574 920C732 920 824 827 824 644V0H994V656C994 937 819 1076 606 1076C475 1076 369 1023 296 908V1490H126V0H296Z"/><path transform="translate(14713.0000 0)" d="M448 -16C640 -16 723 74 762 150H766V0H934V728C934 937 778 1076 532 1076C282 1076 111 933 102 740H275C283 845 385 926 532 926C680 926 766 843 766 728V718C766 637 701 645 500 618C288 590 80 546 80 304C80 93 238 -16 448 -16ZM472 136C337 136 254 195 254 294C254 413 370 455 492 472C613 489 740 508 766 532V400C766 262 680 136 472 136Z"/><path transform="translate(15773.0000 0)" d="M126 0H296V650C296 829 397 908 514 908C563 908 604 900 618 896V1066C604 1068 577 1072 546 1072C414 1072 331 999 292 890H288V1056H126Z"/><path transform="translate(16433.0000 0)" d="M562 -24C792 -24 972 114 1012 316H842C810 206 712 130 562 130C362 130 248 272 240 479H1030V526C1030 854 844 1080 550 1080C270 1080 72 847 72 526C72 208 252 -24 562 -24ZM242 625C260 811 377 928 550 928C724 928 842 811 860 625Z"/><path transform="translate(17531.0000 0)" d="M225 -17C295 -17 350 38 350 108C350 178 295 233 225 233C155 233 100 178 100 108C100 38 155 -17 225 -17Z"/></g><path d="M381 162h45m-8-8 8 8-8 8" fill="none" stroke="#a5abb5" stroke-width="2" stroke-linecap="round" stroke-linejoin="round"/><path d="M849 162h45m-8-8 8 8-8 8" fill="none" stroke="#a5abb5" stroke-width="2" stroke-linecap="round" stroke-linejoin="round"/></svg>
